<?xml version="1.0" encoding="UTF-8"?>
<svg xmlns:xlink="http://www.w3.org/1999/xlink" width="90px" height="40px" viewBox="0 0 90 40" version="1.1" xmlns="http://www.w3.org/2000/svg">
    <g id="Symbols" stroke="none" stroke-width="1" fill="none" fill-rule="evenodd">
        <g id="footer" transform="translate(-1594.000000, -600.000000)">
            <g id="Group-23">
                <g transform="translate(1594.000000, 600.000000)">
                    <path d="M21.0689474,20.5632632 L21.0689474,26.1506316 L24.5110526,26.1506316 C25.33,26.1506316 26.0078947,25.8748421 26.5447368,25.3232632 C27.0952632,24.7727368 27.3710526,24.1169474 27.3710526,23.3569474 C27.3710526,22.6116842 27.0952632,21.9643158 26.5447368,21.4127368 C26.0078947,20.8464211 25.33,20.5632632 24.5110526,20.5632632 L21.0689474,20.5632632 Z M21.0689474,28.1169474 L21.0689474,34.598 L19.0131579,34.598 L19.0131579,18.5969474 L24.4657895,18.5969474 C25.8510526,18.5969474 27.0289474,19.0590526 27.9973684,19.9822105 C28.9805263,20.9064211 29.4721053,22.0316842 29.4721053,23.3569474 C29.4721053,24.7127368 28.9805263,25.8453684 27.9973684,26.7537895 C27.0436842,27.6632632 25.8668421,28.1169474 24.4657895,28.1169474 L21.0689474,28.1169474 Z"
                          id="Fill-1" fill="#767676"></path>
                    <path d="M32.3107368,31.2463158 C32.3107368,31.7821053 32.5370526,32.2294737 32.9917895,32.5863158 C33.4465263,32.9442105 33.9791579,33.1231579 34.5907368,33.1231579 C35.4538947,33.1231579 36.2254737,32.8031579 36.9033684,32.1631579 C37.5812632,31.5221053 37.9202105,30.7694737 37.9202105,29.9052632 C37.2791579,29.3989474 36.3854737,29.1452632 35.2381053,29.1452632 C34.4033684,29.1452632 33.7075789,29.3463158 33.1486316,29.7484211 C32.5896842,30.1505263 32.3107368,30.6505263 32.3107368,31.2463158 M34.9696842,23.2894737 C36.4896842,23.2894737 37.6886316,23.6957895 38.5686316,24.5084211 C39.4475789,25.32 39.8865263,26.4336842 39.8865263,27.8484211 L39.8865263,34.5989474 L37.9202105,34.5989474 L37.9202105,33.0789474 L37.8307368,33.0789474 C36.9812632,34.3305263 35.8486316,34.9557895 34.4338947,34.9557895 C33.2275789,34.9557895 32.2170526,34.5989474 31.4054737,33.8831579 C30.5928421,33.1684211 30.1875789,32.2747368 30.1875789,31.2021053 C30.1875789,30.0694737 30.616,29.1673684 31.4728421,28.4968421 C32.3296842,27.8263158 33.4728421,27.4915789 34.9033684,27.4915789 C36.1244211,27.4915789 37.1307368,27.7157895 37.9202105,28.1621053 L37.9202105,27.6926316 C37.9202105,26.9778947 37.6370526,26.3705263 37.0707368,25.8715789 C36.5044211,25.3715789 35.8412632,25.1231579 35.0812632,25.1231579 C33.9338947,25.1231579 33.0254737,25.6073684 32.3549474,26.5757895 L30.5454737,25.4347368 C31.5433684,24.0052632 33.0181053,23.2894737 34.9696842,23.2894737"
                          id="Fill-3" fill="#767676"></path>
                    <path d="M55.0394737,34.7773684 C54.1447368,34.7773684 53.4036842,34.5015789 52.8163158,33.95 C52.2268421,33.3994737 51.9247368,32.6321053 51.91,31.6478947 L51.91,25.5247368 L49.9878947,25.5247368 L49.9878947,23.6478947 L51.91,23.6478947 L51.91,20.2952632 L53.9657895,20.2952632 L53.9657895,23.6478947 L56.6478947,23.6478947 L56.6478947,25.5247368 L53.9657895,25.5247368 L53.9657895,30.9784211 C53.9657895,31.7078947 54.1078947,32.2036842 54.3910526,32.4636842 C54.6742105,32.7247368 54.9942105,32.8552632 55.3521053,32.8552632 C55.5163158,32.8552632 55.6763158,32.8363158 55.8331579,32.7994737 C55.9889474,32.7626316 56.1342105,32.7142105 56.2689474,32.6542105 L56.9163158,34.4868421 C56.3794737,34.6805263 55.7552632,34.7773684 55.0394737,34.7773684 Z M42.2110526,23.6478947 L44.1784211,23.6478947 L44.1784211,25.4352632 L44.2668421,25.4352632 C44.8784211,24.0352632 46.1373684,23.3342105 48.0436842,23.3342105 L48.4689474,23.3794737 L48.4689474,25.5247368 L47.5531579,25.4352632 C46.5984211,25.4352632 45.8131579,25.73 45.1942105,26.3184211 C44.5763158,26.9068421 44.2668421,27.6552632 44.2668421,28.5647368 L44.2668421,34.5984211 L42.2110526,34.5984211 L42.2110526,23.6478947 Z"
                          id="Fill-5" fill="#767676"></path>
                    <path d="M58.7267368,23.6475789 L60.6930526,23.6475789 L60.6930526,25.1665263 L60.7825263,25.1665263 C61.0951579,24.6307368 61.5762105,24.1833684 62.2235789,23.8254737 C62.872,23.4686316 63.5456842,23.2896842 64.2467368,23.2896842 C65.5877895,23.2896842 66.6193684,23.6738947 67.3425263,24.4402105 C68.0646316,25.2086316 68.4256842,26.3002105 68.4256842,27.7149474 L68.4256842,34.5981053 L66.3698947,34.5981053 L66.3698947,27.8486316 C66.3256842,26.0612632 65.4235789,25.1665263 63.6656842,25.1665263 C62.8456842,25.1665263 62.1604211,25.4991579 61.6088421,26.1623158 C61.0583158,26.8254737 60.7825263,27.6181053 60.7825263,28.5412632 L60.7825263,34.5981053 L58.7267368,34.5981053 L58.7267368,23.6475789 Z"
                          id="Fill-7" fill="#767676"></path>
                    <path d="M72.4706316,27.8042105 L78.7516842,27.8042105 C78.6916842,27.0442105 78.3822105,26.4157895 77.8232632,25.9157895 C77.2653684,25.4168421 76.5169474,25.1673684 75.5769474,25.1673684 C74.8032632,25.1673684 74.1358947,25.4063158 73.578,25.8821053 C73.0190526,26.3589474 72.6495789,27 72.4706316,27.8042105 M75.7558947,34.9557895 C74.1474737,34.9557895 72.8211579,34.4052632 71.7790526,33.3021053 C70.7358947,32.2 70.2137895,30.8073684 70.2137895,29.1231579 C70.2137895,27.4547368 70.7201053,26.0652632 71.7337895,24.9547368 C72.7474737,23.8452632 74.0422105,23.2894737 75.6222105,23.2894737 C77.2464211,23.2894737 78.5390526,23.8147368 79.5001053,24.8652632 C80.4611579,25.9157895 80.9411579,27.3873684 80.9411579,29.2789474 L80.9190526,29.5031579 L72.3148421,29.5031579 C72.3443158,30.5757895 72.7022105,31.44 73.3874737,32.0957895 C74.0716842,32.7515789 74.8927368,33.0789474 75.8453684,33.0789474 C77.1569474,33.0789474 78.1853684,32.4231579 78.9306316,31.1126316 L80.7622105,32.0063158 C80.2706316,32.9305263 79.5895789,33.6526316 78.718,34.1736842 C77.8453684,34.6947368 76.8590526,34.9557895 75.7558947,34.9557895"
                          id="Fill-9" fill="#767676"></path>
                    <path d="M84.8750526,34.5985263 L82.8182105,34.5985263 L82.8182105,23.648 L84.7855789,23.648 L84.7855789,25.4353684 L84.8750526,25.4353684 C85.0824211,24.8543158 85.5108421,24.3585263 86.1603158,23.9490526 C86.8076842,23.5395789 87.4445263,23.3343158 88.0708421,23.3343158 C88.6666316,23.3343158 89.1729474,23.4237895 89.5897895,23.6027368 L88.9645263,25.5922105 C88.7118947,25.488 88.3087368,25.4353684 87.7571579,25.4353684 C86.9824211,25.4353684 86.3076842,25.748 85.7350526,26.3743158 C85.1613684,26.9995789 84.8750526,27.7301053 84.8750526,28.5648421 L84.8750526,34.5985263 Z"
                          id="Fill-11" fill="#767676"></path>
                    <path d="M23.6712632,9.24589474 L23.6712632,10.6416842 L27.0112632,10.6416842 C26.9038947,11.5227368 26.5386316,12.208 25.9154737,12.6985263 C25.3081053,13.1806316 24.5607368,13.4206316 23.6712632,13.4206316 C22.6407368,13.4206316 21.7723158,13.0595789 21.066,12.3364211 C20.3596842,11.6216842 20.0070526,10.7458947 20.0070526,9.70694737 C20.0070526,8.668 20.3596842,7.79221053 21.066,7.07642105 C21.7723158,6.35326316 22.6407368,5.99221053 23.6712632,5.99221053 C24.6354737,5.99221053 25.4744211,6.32484211 26.1891579,6.98905263 L27.1744211,6.00484211 C26.1849474,5.06589474 25.0175789,4.59642105 23.6712632,4.59642105 C22.7575789,4.59642105 21.8933684,4.82905263 21.0786316,5.29431579 C20.2723158,5.75115789 19.6365263,6.37852632 19.1723158,7.17642105 C18.7154737,7.95747368 18.486,8.80168421 18.486,9.70694737 C18.486,10.6206316 18.7154737,11.468 19.1723158,12.2501053 C19.6291579,13.0395789 20.2649474,13.6616842 21.0786316,14.1185263 C21.8933684,14.5848421 22.7575789,14.8164211 23.6712632,14.8164211 C25.0512632,14.8164211 26.1933684,14.3848421 27.0986316,13.5206316 C27.9965263,12.6648421 28.4449474,11.5311579 28.4449474,10.1185263 C28.4449474,9.78589474 28.4207368,9.49431579 28.3702105,9.24589474 L23.6712632,9.24589474 Z"
                          id="Fill-13" fill="#487BBE"></path>
                    <path d="M33.5555789,12.9475789 C33.1976842,13.3296842 32.7618947,13.5202105 32.2471579,13.5202105 C31.7229474,13.5202105 31.2829474,13.3296842 30.9250526,12.9475789 C30.5682105,12.5654737 30.3892632,12.0917895 30.3892632,11.5265263 C30.3892632,10.9454737 30.5682105,10.4707368 30.9250526,10.1054737 C31.2829474,9.72336842 31.7229474,9.53178947 32.2471579,9.53178947 C32.7703158,9.53178947 33.2103158,9.72336842 33.5682105,10.1054737 C33.9250526,10.4707368 34.104,10.9454737 34.104,11.5265263 C34.104,12.0833684 33.9208421,12.5570526 33.5555789,12.9475789 M32.2471579,8.236 C31.3071579,8.236 30.5229474,8.55178947 29.8913684,9.18336842 C29.2587368,9.80652632 28.944,10.5875789 28.944,11.5265263 C28.944,12.4486316 29.2629474,13.2296842 29.9029474,13.8696842 C30.5345263,14.5012632 31.3166316,14.8170526 32.2471579,14.8170526 C33.1776842,14.8170526 33.9587368,14.5012632 34.5903158,13.8696842 C35.2292632,13.2296842 35.5503158,12.4486316 35.5503158,11.5265263 C35.5503158,10.5875789 35.2292632,9.80652632 34.5903158,9.18336842 C33.9587368,8.55178947 33.1776842,8.236 32.2471579,8.236"
                          id="Fill-15" fill="#EE372C"></path>
                    <polygon id="Fill-17" fill="#00AB4E" points="50.6557895 14.6175789 52.1010526 14.6175789 52.1010526 4.946 50.6557895 4.946"></polygon>
                    <path d="M40.7595789,12.9475789 C40.4027368,13.3296842 39.9658947,13.5202105 39.4511579,13.5202105 C38.9269474,13.5202105 38.4869474,13.3296842 38.1290526,12.9475789 C37.7722105,12.5654737 37.5943158,12.0917895 37.5943158,11.5265263 C37.5943158,10.9454737 37.7722105,10.4707368 38.1290526,10.1054737 C38.4869474,9.72336842 38.9269474,9.53178947 39.4511579,9.53178947 C39.9743158,9.53178947 40.4143158,9.72336842 40.7722105,10.1054737 C41.1290526,10.4707368 41.308,10.9454737 41.308,11.5265263 C41.308,12.0833684 41.1248421,12.5570526 40.7595789,12.9475789 M39.4511579,8.236 C38.5122105,8.236 37.7269474,8.55178947 37.0953684,9.18336842 C36.4637895,9.80652632 36.148,10.5875789 36.148,11.5265263 C36.148,12.4486316 36.468,13.2296842 37.108,13.8696842 C37.7385263,14.5012632 38.5206316,14.8170526 39.4511579,14.8170526 C40.3816842,14.8170526 41.1627368,14.5012632 41.7943158,13.8696842 C42.4343158,13.2296842 42.7543158,12.4486316 42.7543158,11.5265263 C42.7543158,10.5875789 42.4343158,9.80652632 41.7943158,9.18336842 C41.1627368,8.55178947 40.3816842,8.236 39.4511579,8.236"
                          id="Fill-19" fill="#FCB514"></path>
                    <path d="M54.7321053,10.0558947 C55.0973684,9.69063158 55.5036842,9.50747368 55.9531579,9.50747368 C56.2352632,9.50747368 56.4889474,9.57168421 56.7142105,9.70115789 C56.9384211,9.82957895 57.0910526,9.998 57.1742105,10.2053684 L54.2331579,11.4264211 C54.2163158,10.8695789 54.3826316,10.4127368 54.7321053,10.0558947 M56.0657895,13.5211579 C55.3426316,13.5211579 54.81,13.1885263 54.47,12.5232632 L58.87,10.7043158 L58.7205263,10.3295789 C58.6036842,10.0222105 58.4521053,9.74010526 58.2647368,9.48221053 C58.0784211,9.22431579 57.8647368,9.00326316 57.6236842,8.81589474 C57.3826316,8.62852632 57.1163158,8.48536842 56.8257895,8.38536842 C56.5352632,8.28536842 56.2278947,8.23589474 55.9026316,8.23589474 C55.0226316,8.23589474 54.2826316,8.54747368 53.6847368,9.17063158 C53.0942105,9.80221053 52.7994737,10.5874737 52.7994737,11.5264211 C52.7994737,12.4569474 53.1110526,13.238 53.7352632,13.8695789 C54.3584211,14.5011579 55.1352632,14.8169474 56.0657895,14.8169474 C57.2289474,14.8169474 58.1426316,14.3306316 58.8078947,13.3590526 L57.6857895,12.6106316 C57.2784211,13.2169474 56.7384211,13.5211579 56.0657895,13.5211579"
                          id="Fill-20" fill="#EE372C"></path>
                    <path d="M47.8766316,12.9598947 C47.5355789,13.3335789 47.1197895,13.5209474 46.6292632,13.5209474 C46.1145263,13.5209474 45.6787368,13.3304211 45.3218947,12.9472632 C44.9724211,12.5651579 44.7976842,12.0956842 44.7976842,11.5388421 C44.7976842,10.9735789 44.9766316,10.5009474 45.3334737,10.1177895 C45.6997895,9.72726316 46.1313684,9.53252632 46.6292632,9.53252632 C47.1282105,9.53252632 47.544,9.72305263 47.8766316,10.1062105 C48.2166316,10.4967368 48.3871579,10.9735789 48.3871579,11.5388421 C48.3871579,12.0956842 48.2166316,12.5693684 47.8766316,12.9598947 Z M48.2882105,8.97147368 L48.2376842,8.97147368 C47.8218947,8.48094737 47.2450526,8.23568421 46.5050526,8.23568421 C45.6576842,8.23568421 44.9176842,8.55989474 44.2871579,9.20831579 C43.664,9.85673684 43.3524211,10.6335789 43.3524211,11.5388421 C43.3524211,12.4356842 43.664,13.2093684 44.2871579,13.8577895 C44.9271579,14.4967368 45.6661053,14.8167368 46.5050526,14.8167368 C47.2450526,14.8167368 47.8218947,14.5672632 48.2376842,14.0693684 L48.2882105,14.0693684 L48.2882105,14.4062105 C48.2882105,15.7851579 47.7018947,16.4746316 46.5303158,16.4746316 C46.1566316,16.4746316 45.824,16.3662105 45.5334737,16.1504211 C45.2429474,15.9346316 45.0218947,15.6525263 44.8724211,15.3030526 L43.6134737,15.8262105 C43.7387368,16.1177895 43.8966316,16.3809474 44.0871579,16.6177895 C44.2787368,16.8546316 44.5008421,17.0588421 44.7545263,17.2293684 C45.0071579,17.3988421 45.284,17.5314737 45.5829474,17.6283158 C45.8818947,17.7230526 46.1976842,17.7704211 46.5303158,17.7704211 C47.5103158,17.7704211 48.2776842,17.4735789 48.8292632,16.8798947 C49.3829474,16.2862105 49.6587368,15.4398947 49.6587368,14.3430526 L49.6587368,8.43568421 L48.2882105,8.43568421 L48.2882105,8.97147368 Z"
                          id="Fill-21" fill="#487BBE"></path>
                    <polygon id="Fill-22" fill="#487BBE" points="0 39.8554737 10.4884211 39.8554737 10.4884211 -0.000315789474 0 -0.000315789474"></polygon>
                </g>
            </g>
        </g>
    </g>
</svg>