<?xml version="1.0" encoding="utf-8"?>
<!-- Generator: Adobe Illustrator 25.4.1, SVG Export Plug-In . SVG Version: 6.00 Build 0)  -->
<svg version="1.1" xmlns="http://www.w3.org/2000/svg" xmlns:xlink="http://www.w3.org/1999/xlink" x="0px" y="0px" width="248px" height="62px"
	 viewBox="0 0 7397.4 1679.6" style="enable-background:new 0 0 7397.4 1679.6;" xml:space="preserve">
<style type="text/css">
	.st0{fill:#FFFFFF;}
</style>
<g id="Слой_11">
</g>
<g id="Слой_10">
</g>
<g id="Слой_9">
</g>
<g id="Слой_8">
</g>
<g id="Слой_7">
</g>
<g id="Слой_6">
</g>
<g id="Слой_5">
</g>
<g id="Слой_4">
</g>
<g id="Слой_3">
</g>
<g id="Слой_2">
	<g>
		<path class="st0" d="M4018.9,361.2c-260.8,0-472.3,214.3-472.3,478.6c0,264.3,211.4,478.6,472.3,478.6
			c260.8,0,472.3-214.3,472.3-478.6C4491.2,575.5,4279.8,361.2,4018.9,361.2 M4018.9,534.8c159.7,0,289.6,136.8,289.6,305
			c0,168.2-129.9,305-289.6,305c-159.7,0-289.6-136.8-289.6-305C3729.3,671.6,3859.2,534.8,4018.9,534.8"/>
		<polygon class="st0" points="2852.1,381.9 2141.6,381.9 2141.6,540 2414.5,540 2414.5,1300.4 2586.9,1300.4 2586.9,540 
			2852.1,540 		"/>
		<path class="st0" d="M3009.2,381.9v158.1h258.1v444.3c0,95.4-77.6,173-173,173c-95.4,0-173-77.6-173-173v-47.9h-160.9v47.9
			c0,184.5,149.5,334,334,334c184.4,0,334-149.5,334-334V381.9H3009.2z"/>
		<polygon class="st0" points="6136,540 6136,381.8 5474.5,381.8 5468.5,381.9 5468.5,1300.4 6136,1300.4 6136,1142.3 
			5640.9,1142.3 5640.9,913.3 6063.5,913.3 6063.5,755.2 5640.9,755.2 5640.9,540 		"/>
		<path class="st0" d="M610.9,831.6l133.5-449.7l133.4,449.7H610.9z M1016.8,1300.3h172.4L916.8,381.9H744.4H571.9l-272.5,918.4
			h172.5L564,989.7h360.7L1016.8,1300.3z"/>
		<path class="st0" d="M6438.7,542.8h350.2c64,0,116,52,116,116c0,64-52,116-116,116h-350.1L6438.7,542.8z M6797.7,935.4
			c148.8-4.7,268.1-126.6,268.1-276.5c0-153-124-277-277-277l-515.7,0v0l0.2,918.5h165.5l-0.1-364.6L6797.7,935.4z"/>
		<polyline class="st0" points="6800.8,935.8 6911.2,1300.3 7090.8,1300.3 6980.3,935.4 6800.6,935.4 		"/>
		<path class="st0" d="M1438.4,542.8h350.1c64,0,116,52,116,116c0,64-52,116-116,116h-350.1L1438.4,542.8z M1797.4,935.4
			c148.8-4.7,268.1-126.6,268.1-276.5c0-153-124-277-277-277l-515.7,0v0l0.2,918.5h165.5l-0.1-364.6L1797.4,935.4z"/>
		<polyline class="st0" points="1800.5,935.8 1910.9,1300.3 2090.4,1300.3 1979.9,935.4 1800.2,935.4 		"/>
		<polygon class="st0" points="5339.7,568.6 5339.7,377.7 4780,649.8 4780,381.9 4613.5,381.9 4613.5,1300.4 4780,1300.4 
			4780,1032.5 5339.7,1304.6 5339.7,1113.6 4780,841.5 4780,840.8 		"/>
	</g>
</g>
</svg>
